<svg xmlns="http://www.w3.org/2000/svg" viewBox="-110 -110 220 220">
  <!-- All connections -->
  <g stroke="rgba(0,0,0,0.15)" stroke-width="0.5">
    <!-- Center to all points -->
    <line x1="0" y1="0" x2="0" y2="-40"/>
    <line x1="0" y1="0" x2="34.64" y2="-20"/>
    <line x1="0" y1="0" x2="34.64" y2="20"/>
    <line x1="0" y1="0" x2="0" y2="40"/>
    <line x1="0" y1="0" x2="-34.64" y2="20"/>
    <line x1="0" y1="0" x2="-34.64" y2="-20"/>
    <line x1="0" y1="0" x2="0" y2="-80"/>
    <line x1="0" y1="0" x2="69.28" y2="-40"/>
    <line x1="0" y1="0" x2="69.28" y2="40"/>
    <line x1="0" y1="0" x2="0" y2="80"/>
    <line x1="0" y1="0" x2="-69.28" y2="40"/>
    <line x1="0" y1="0" x2="-69.28" y2="-40"/>

    <!-- Inner ring connections -->
    <line x1="0" y1="-40" x2="34.64" y2="-20"/>
    <line x1="34.64" y1="-20" x2="34.64" y2="20"/>
    <line x1="34.64" y1="20" x2="0" y2="40"/>
    <line x1="0" y1="40" x2="-34.64" y2="20"/>
    <line x1="-34.64" y1="20" x2="-34.64" y2="-20"/>
    <line x1="-34.64" y1="-20" x2="0" y2="-40"/>
    <line x1="-34.64" y1="20" x2="34.64" y2="20"/>
    <line x1="-34.64" y1="-20" x2="34.64" y2="-20"/>

    <!-- Inner ring cross connections -->
    <line x1="0" y1="-40" x2="34.64" y2="20"/>
    <line x1="0" y1="-40" x2="-34.64" y2="20"/>
    <line x1="34.64" y1="-20" x2="0" y2="40"/>
    <line x1="34.64" y1="-20" x2="-34.64" y2="20"/>
    <line x1="34.64" y1="20" x2="-34.64" y2="-20"/>
    <line x1="0" y1="40" x2="-34.64" y2="-20"/>

    <!-- Outer ring connections -->
    <line x1="0" y1="-80" x2="69.28" y2="-40"/>
    <line x1="69.28" y1="-40" x2="69.28" y2="40"/>
    <line x1="69.28" y1="40" x2="0" y2="80"/>
    <line x1="0" y1="80" x2="-69.28" y2="40"/>
    <line x1="-69.28" y1="40" x2="-69.28" y2="-40"/>
    <line x1="-69.28" y1="-40" x2="0" y2="-80"/>
    <line x1="-69.28" y1="40" x2="69.28" y2="40"/>

    <!-- Outer ring cross connections -->
    <line x1="0" y1="-80" x2="69.28" y2="40"/>
    <line x1="0" y1="-80" x2="-69.28" y2="40"/>
    <line x1="69.28" y1="-40" x2="0" y2="80"/>
    <line x1="69.28" y1="-40" x2="-69.28" y2="40"/>
    <line x1="69.28" y1="40" x2="-69.28" y2="-40"/>
    <line x1="0" y1="80" x2="-69.28" y2="-40"/>

    <!-- Cross-ring connections -->
    <line x1="0" y1="-40" x2="69.28" y2="-40"/>
    <line x1="34.64" y1="-20" x2="69.28" y2="-40"/>
    <line x1="34.64" y1="20" x2="69.28" y2="40"/>
    <line x1="0" y1="40" x2="0" y2="80"/>
    <line x1="-34.64" y1="20" x2="-69.28" y2="40"/>
    <line x1="-34.64" y1="-20" x2="-69.28" y2="-40"/>
    <line x1="0" y1="-40" x2="69.28" y2="40"/>
    <line x1="34.64" y1="-20" x2="0" y2="-80"/>
    <line x1="34.64" y1="-20" x2="69.28" y2="40"/>
    <line x1="34.64" y1="20" x2="69.28" y2="-40"/>
    <line x1="0" y1="40" x2="69.28" y2="-40"/>
    <line x1="-34.64" y1="20" x2="0" y2="-80"/>
    <line x1="-34.64" y1="20" x2="69.28" y2="-40"/>
    <line x1="-34.64" y1="-20" x2="69.28" y2="40"/>
    <line x1="0" y1="-40" x2="-69.28" y2="40"/>
    <line x1="34.64" y1="-20" x2="-69.28" y2="40"/>
    <line x1="34.64" y1="20" x2="-69.28" y2="-40"/>
    <line x1="0" y1="40" x2="-69.28" y2="-40"/>

    <!-- Final connections -->
    <line x1="0" y1="-80" x2="34.64" y2="-20"/>
    <line x1="0" y1="-80" x2="34.64" y2="20"/>
    <line x1="0" y1="-80" x2="0" y2="40"/>
    <line x1="0" y1="-80" x2="-34.64" y2="20"/>
    <line x1="0" y1="-80" x2="-34.64" y2="-20"/>
    <line x1="69.28" y1="-40" x2="-34.64" y2="-20"/>
    <line x1="69.28" y1="-40" x2="-34.64" y2="20"/>
    <line x1="69.28" y1="40" x2="34.64" y2="-20"/>
    <line x1="69.28" y1="40" x2="0" y2="-40"/>
    <line x1="69.28" y1="40" x2="-34.64" y2="20"/>
    <line x1="69.28" y1="40" x2="-34.64" y2="-20"/>
    <line x1="0" y1="80" x2="34.64" y2="-20"/>
    <line x1="0" y1="80" x2="34.64" y2="20"/>
    <line x1="0" y1="80" x2="0" y2="-40"/>
    <line x1="0" y1="80" x2="-34.64" y2="20"/>
    <line x1="0" y1="80" x2="-34.64" y2="-20"/>
    <line x1="-69.28" y1="40" x2="34.64" y2="-20"/>
    <line x1="-69.28" y1="40" x2="34.64" y2="20"/>
    <line x1="-69.28" y1="40" x2="0" y2="-40"/>
    <line x1="-69.28" y1="-40" x2="34.64" y2="20"/>
    <line x1="-69.28" y1="-40" x2="0" y2="-40"/>
    <line x1="-69.28" y1="-40" x2="-34.64" y2="20"/>
    <line x1="-69.28" y1="-40" x2="34.64" y2="-20"/>
  </g>

  <!-- Original circles -->
  <g stroke="black" fill="none" stroke-width="1">
    <circle cx="0" cy="0" r="20"/>
    <circle cx="0" cy="-40" r="20"/>
    <circle cx="34.64" cy="-20" r="20"/>
    <circle cx="34.64" cy="20" r="20"/>
    <circle cx="0" cy="40" r="20"/>
    <circle cx="-34.64" cy="20" r="20"/>
    <circle cx="-34.64" cy="-20" r="20"/>
    <circle cx="0" cy="-80" r="20"/>
    <circle cx="69.28" cy="-40" r="20"/>
    <circle cx="69.28" cy="40" r="20"/>
    <circle cx="0" cy="80" r="20"/>
    <circle cx="-69.28" cy="40" r="20"/>
    <circle cx="-69.28" cy="-40" r="20"/>
  </g>

  <!-- Center points -->
  <g fill="red">
    <circle cx="0" cy="0" r="2"/>
    <circle cx="0" cy="-40" r="2"/>
    <circle cx="34.64" cy="-20" r="2"/>
    <circle cx="34.64" cy="20" r="2"/>
    <circle cx="0" cy="40" r="2"/>
    <circle cx="-34.64" cy="20" r="2"/>
    <circle cx="-34.64" cy="-20" r="2"/>
    <circle cx="0" cy="-80" r="2"/>
    <circle cx="69.28" cy="-40" r="2"/>
    <circle cx="69.28" cy="40" r="2"/>
    <circle cx="0" cy="80" r="2"/>
    <circle cx="-69.28" cy="40" r="2"/>
    <circle cx="-69.28" cy="-40" r="2"/>
  </g>
</svg>